<mxfile host="app.diagrams.net" modified="2023-10-23T06:26:45.526Z" agent="Mozilla/5.0 (Macintosh; Intel Mac OS X 10_15_7) AppleWebKit/537.36 (KHTML, like Gecko) Chrome/118.0.0.0 Safari/537.36" version="22.0.6" etag="9j0pm5JLj8PUUKBDOR8G" type="github">
  <diagram name="Page-1" id="exJDMu2832jxzCIDNkBo">
    <mxGraphModel>
      <root>
        <mxCell id="0" />
        <mxCell id="1" parent="0" />
      </root>
    </mxGraphModel>
  </diagram>
</mxfile>
